A young couple moves into a farmhouse in rural Pennsylvania. What they don't know is that there is an unseen presence in the house, and that it wants to take possession of the wife.


General
Format                           : Windows Media
File size                        : 1.30 GiB
Duration                         : 1h 15mn
Overall bit rate                 : 2468 Kbps
Maximum Overall bit rate         : 264 Kbps
WM/EncodingSettings              : Lavf52.64.0

Video
ID                               : 1
Format                           : WMV1
Codec ID                         : WMV1
Codec ID/Info                    : Windows Media Video 7
Description of the codec         : wmv1
Duration                         : 1h 15mn
Bit rate                         : 2 298 Kbps
Width                            : 854 pixels
Height                           : 470 pixels
Display aspect ratio             : 16:9
Frame rate                       : 29.970 fps
Bit depth                        : 8 bits
Bits/(Pixel*Frame)               : 0.191
Stream size                      : 1.21 GiB (93%)

Audio
ID                               : 2
Format                           : WMA
Format version                   : Version 2
Codec ID                         : 161
Codec ID/Info                    : Windows Media Audio
Description of the codec         : Windows Media Audio V8
Duration                         : 1h 15mn
Bit rate                         : 64.0 Kbps
Channel(s)                       : 2 channels
Sampling rate                    : 44.1 KHz
Bit depth                        : 16 bits
Stream size                      : 34.4 MiB (3%)

